<svg width="158" height="32" viewBox="0 0 158 32" fill="none" xmlns="http://www.w3.org/2000/svg">
<g clip-path="url(#clip0)">
<path fill-rule="evenodd" clip-rule="evenodd" d="M46.2447 1.18127L68.3712 25.4401C69.7539 26.956 69.6501 29.3097 68.1394 30.6971C67.4557 31.325 66.5625 31.6732 65.6358 31.6732H21.5071C19.4592 31.6732 17.799 30.0073 17.799 27.9523C17.799 27.0223 18.146 26.1261 18.7718 25.4401L40.8982 1.18127C42.2495 -0.300207 44.5418 -0.401989 46.0181 0.953933C46.097 1.02632 46.1726 1.10218 46.2447 1.18127Z" fill="white"/>
<path fill-rule="evenodd" clip-rule="evenodd" d="M1.19543 24.3197L22.4385 1.46063C24.1145 -0.342903 26.9303 -0.441569 28.7276 1.24025C30.5249 2.92207 30.6232 5.7475 28.9472 7.55103L7.70412 30.4101C6.02808 32.2136 3.21237 32.3123 1.41505 30.6305C-0.382279 28.9486 -0.480606 26.1232 1.19543 24.3197Z" fill="url(#paint0_linear)"/>
<path fill-rule="evenodd" clip-rule="evenodd" d="M22.3318 1.46063C24.0078 -0.342903 26.8235 -0.441569 28.6208 1.24025C30.4182 2.92207 30.5165 5.7475 28.8405 7.55103C27.1644 9.35456 24.3487 9.45323 22.5514 7.77141C20.7541 6.08959 20.6557 3.26416 22.3318 1.46063Z" fill="white"/>
<path d="M89.0151 23.3134C90.1243 23.3134 91.0813 23.1272 91.8861 22.7548C92.6909 22.3823 93.3537 21.8711 93.8745 21.221C94.3952 20.5709 94.7807 19.8125 95.031 18.9457C95.2812 18.0789 95.4063 17.1445 95.4063 16.1423V8.76796H92.0788V16.1423C92.0788 16.6704 92.0281 17.1885 91.9267 17.6963C91.8252 18.2042 91.6527 18.6545 91.4093 19.0473C91.1658 19.44 90.8479 19.7549 90.4557 19.9919C90.0634 20.2289 89.5832 20.3474 89.0151 20.3474C88.447 20.3474 87.9702 20.2323 87.5847 20.0021C87.1992 19.7719 86.8847 19.4604 86.6412 19.0676C86.3977 18.6748 86.2219 18.2279 86.1137 17.7268C86.0055 17.2257 85.9513 16.6975 85.9513 16.1423V8.76796H82.6238V16.1423C82.6238 17.0903 82.7422 17.9977 82.9789 18.8645C83.2156 19.7312 83.5876 20.493 84.0948 21.1499C84.6021 21.8067 85.2615 22.3315 86.0731 22.7243C86.8847 23.117 87.8653 23.3134 89.0151 23.3134ZM102.102 23.1915V18.5394H105.024C105.713 18.5394 106.342 18.404 106.911 18.1331C107.479 17.8623 107.962 17.4966 108.361 17.0361C108.76 16.5756 109.071 16.0542 109.295 15.4719C109.518 14.8895 109.629 14.2801 109.629 13.6435C109.629 13.0476 109.511 12.4585 109.274 11.8761C109.038 11.2938 108.713 10.7724 108.3 10.3119C107.888 9.85142 107.394 9.47898 106.819 9.19457C106.244 8.91016 105.612 8.76796 104.922 8.76796H98.7744V23.1915H102.102ZM104.821 15.6344H102.102V11.6933H104.699C104.888 11.6933 105.078 11.7305 105.267 11.805C105.456 11.8795 105.626 11.998 105.774 12.1605C105.923 12.3231 106.042 12.5262 106.129 12.77C106.217 13.0138 106.261 13.3049 106.261 13.6435C106.261 14.2936 106.119 14.7879 105.835 15.1265C105.551 15.4651 105.213 15.6344 104.821 15.6344ZM115.534 23.1915V17.2799H121.276V23.1915H124.603V8.76796H121.276V14.3546H115.534V8.76796H112.206V23.1915H115.534ZM131.481 23.1915V8.76796H128.154V23.1915H131.481ZM145.339 23.1915V20.2662H138.36V8.76796H135.032V23.1915H145.339ZM158 23.1915V20.2662H151.02V8.76796H147.693V23.1915H158Z" fill="white"/>
</g>
<defs>
<linearGradient id="paint0_linear" x1="15.0713" y1="-4.53837" x2="15.0713" y2="31.83" gradientUnits="userSpaceOnUse">
<stop stop-color="white" stop-opacity="0.15"/>
<stop offset="1" stop-color="white"/>
</linearGradient>
<clipPath id="clip0">
<rect width="158" height="32" fill="white"/>
</clipPath>
</defs>
</svg>
